<svg width="22" height="22" viewBox="0 0 22 22" fill="none" xmlns="http://www.w3.org/2000/svg">
<g clip-path="url(#clip0_157_1760)">
<path d="M14.0857 3.15137L17.0291 8.24987H20.1668V10.0832H19.0971L18.4032 18.4093C18.3841 18.6383 18.2796 18.8519 18.1105 19.0076C17.9414 19.1633 17.72 19.2497 17.4902 19.2499H4.51016C4.28031 19.2497 4.05888 19.1633 3.88978 19.0076C3.72068 18.8519 3.61624 18.6383 3.59716 18.4093L2.90233 10.0832H1.8335V8.24987H4.97033L7.91466 3.15137L9.50233 4.06803L7.08783 8.24987H14.9116L12.498 4.06803L14.0857 3.15137ZM17.2573 10.0832H4.74208L5.3535 17.4165H16.6459L17.2573 10.0832ZM11.9168 11.9165V15.5832H10.0835V11.9165H11.9168ZM8.25016 11.9165V15.5832H6.41683V11.9165H8.25016ZM15.5835 11.9165V15.5832H13.7502V11.9165H15.5835Z" fill="white"/>
</g>
<defs>
<clipPath id="clip0_157_1760">
<rect width="22" height="22" fill="white"/>
</clipPath>
</defs>
</svg>
