<svg width="22" height="22" viewBox="0 0 22 22" fill="none" xmlns="http://www.w3.org/2000/svg">
<g clip-path="url(#clip0_73_1268)">
<path d="M11.0002 20.1666C5.93741 20.1666 1.8335 16.0627 1.8335 10.9999C1.8335 5.93717 5.93741 1.83325 11.0002 1.83325C16.0629 1.83325 20.1668 5.93717 20.1668 10.9999C20.1668 16.0627 16.0629 20.1666 11.0002 20.1666ZM11.0002 18.3333C12.9451 18.3333 14.8103 17.5606 16.1856 16.1854C17.5609 14.8101 18.3335 12.9448 18.3335 10.9999C18.3335 9.055 17.5609 7.18974 16.1856 5.81447C14.8103 4.4392 12.9451 3.66659 11.0002 3.66659C9.05524 3.66659 7.18998 4.4392 5.81471 5.81447C4.43945 7.18974 3.66683 9.055 3.66683 10.9999C3.66683 12.9448 4.43945 14.8101 5.81471 16.1854C7.18998 17.5606 9.05524 18.3333 11.0002 18.3333ZM11.9168 10.9999H15.5835V12.8333H10.0835V6.41659H11.9168V10.9999Z" fill="#F99928"/>
</g>
<defs>
<clipPath id="clip0_73_1268">
<rect width="22" height="22" fill="white"/>
</clipPath>
</defs>
</svg>
