<svg width="20" height="18" viewBox="0 0 20 18" fill="none" xmlns="http://www.w3.org/2000/svg">
<path d="M10.0011 2.15156C12.1543 0.218315 15.4818 0.282482 17.5563 2.36057C19.6298 4.43957 19.7013 7.75057 17.7726 9.91023L9.99925 17.6946L2.22775 9.91023C0.299085 7.75057 0.371502 4.43407 2.44409 2.36057C4.52034 0.285232 7.84142 0.215565 10.0011 2.15156ZM16.2583 3.65582C14.8833 2.27898 12.6649 2.22307 11.2258 3.51557L10.002 4.61373L8.77734 3.51648C7.33359 2.22215 5.11984 2.27898 3.74117 3.65765C2.37534 5.02348 2.30659 7.20973 3.56517 8.6544L10.0002 15.0995L16.4352 8.65532C17.6947 7.20973 17.6259 5.02623 16.2583 3.65582Z" fill="white"/>
</svg>
