<svg width="16" height="21" viewBox="0 0 16 21" fill="none" xmlns="http://www.w3.org/2000/svg">
<path d="M15.3332 20.1665H13.4998V18.3332C13.4998 17.6038 13.2101 16.9044 12.6944 16.3886C12.1787 15.8729 11.4792 15.5832 10.7498 15.5832H5.24984C4.52049 15.5832 3.82102 15.8729 3.30529 16.3886C2.78957 16.9044 2.49984 17.6038 2.49984 18.3332V20.1665H0.666504V18.3332C0.666504 17.1176 1.14939 15.9518 2.00893 15.0923C2.86847 14.2327 4.03426 13.7498 5.24984 13.7498H10.7498C11.9654 13.7498 13.1312 14.2327 13.9907 15.0923C14.8503 15.9518 15.3332 17.1176 15.3332 18.3332V20.1665ZM7.99984 11.9165C7.27757 11.9165 6.56237 11.7742 5.89508 11.4978C5.22779 11.2214 4.62147 10.8163 4.11075 10.3056C3.60003 9.79487 3.1949 9.18855 2.9185 8.52126C2.6421 7.85397 2.49984 7.13877 2.49984 6.4165C2.49984 5.69423 2.6421 4.97904 2.9185 4.31175C3.1949 3.64445 3.60003 3.03814 4.11075 2.52742C4.62147 2.01669 5.22779 1.61157 5.89508 1.33517C6.56237 1.05877 7.27757 0.916504 7.99984 0.916504C9.45853 0.916504 10.8575 1.49597 11.8889 2.52742C12.9204 3.55887 13.4998 4.95781 13.4998 6.4165C13.4998 7.8752 12.9204 9.27414 11.8889 10.3056C10.8575 11.337 9.45853 11.9165 7.99984 11.9165ZM7.99984 10.0832C8.9723 10.0832 9.90493 9.69686 10.5926 9.00923C11.2802 8.3216 11.6665 7.38897 11.6665 6.4165C11.6665 5.44404 11.2802 4.51141 10.5926 3.82378C9.90493 3.13615 8.9723 2.74984 7.99984 2.74984C7.02738 2.74984 6.09475 3.13615 5.40711 3.82378C4.71948 4.51141 4.33317 5.44404 4.33317 6.4165C4.33317 7.38897 4.71948 8.3216 5.40711 9.00923C6.09475 9.69686 7.02738 10.0832 7.99984 10.0832Z" fill="white"/>
</svg>
