<svg width="22" height="22" viewBox="0 0 22 22" fill="none" xmlns="http://www.w3.org/2000/svg">
<g clip-path="url(#clip0_157_1757)">
<path d="M10.0835 1.8335C14.6375 1.8335 18.3335 5.5295 18.3335 10.0835C18.3335 14.6375 14.6375 18.3335 10.0835 18.3335C5.5295 18.3335 1.8335 14.6375 1.8335 10.0835C1.8335 5.5295 5.5295 1.8335 10.0835 1.8335ZM10.0835 16.5002C13.6282 16.5002 16.5002 13.6282 16.5002 10.0835C16.5002 6.53783 13.6282 3.66683 10.0835 3.66683C6.53783 3.66683 3.66683 6.53783 3.66683 10.0835C3.66683 13.6282 6.53783 16.5002 10.0835 16.5002ZM17.8614 16.5652L20.4547 19.1576L19.1576 20.4547L16.5652 17.8614L17.8614 16.5652Z" fill="white"/>
</g>
<defs>
<clipPath id="clip0_157_1757">
<rect width="22" height="22" fill="white"/>
</clipPath>
</defs>
</svg>
